<svg viewBox="0 0 915 457" xmlns="http://www.w3.org/2000/svg" xmlns:xlink="http://www.w3.org/1999/xlink">
  <defs>
    <style>
      .bg { fill: #B3E5FC; }
      .card { fill: white; stroke: #333; stroke-width: 3; stroke-linecap: round; stroke-linejoin: round; }
      .header { fill: #7C4DFF; }
      .header2 { fill: #2196F3; }
      .header3 { fill: #FFC107; }
      .checkmark { fill: #4CAF50; }
      .text { fill: #ccc; stroke: none; }
      .dot-outline { fill: none; stroke: #ccc; stroke-width: 2; }
      .decorative-circle { fill: #90CAF9; opacity: 0.3; }
      .decorative-dot { fill: #FFB74D; opacity: 0.5; }
      .check-circle { fill: #4CAF50; }
      .check-icon { fill: white; }
    </style>
  </defs>
  
  <!-- Background -->
  <rect class="bg" width="915" height="457"/>
  
  <!-- Decorative Elements -->
  <circle class="decorative-circle" cx="287" cy="95" r="15"/>
  <circle class="decorative-dot" cx="287" cy="362" r="12"/>
  <circle class="decorative-circle" cx="630" cy="128" r="10"/>
  <circle class="decorative-dot" cx="165" cy="358" r="8"/>
  <circle class="decorative-circle" cx="858" cy="145" r="12"/>
  
  <!-- Left Card (Purple Header) -->
  <rect class="card" x="243" y="147" width="135" height="190" rx="8"/>
  <rect class="header" x="243" y="147" width="135" height="30" rx="8"/>
  <line class="text" x1="260" y1="173" x2="310" y2="173" stroke="#ddd" stroke-width="2"/>
  <line class="text" x1="260" y1="190" x2="300" y2="190" stroke="#ddd" stroke-width="2"/>
  <line class="text" x1="260" y1="207" x2="295" y2="207" stroke="#ddd" stroke-width="2"/>
  <circle class="dot-outline" cx="253" cy="273" r="5"/>
  <circle class="dot-outline" cx="253" cy="295" r="5"/>
  <circle cx="257" cy="241" r="4" fill="#4CAF50"/>
  <circle cx="257" cy="258" r="4" fill="#4CAF50"/>
  
  <!-- Center Card (Blue Header) -->
  <rect class="card" x="367" y="120" width="185" height="220" rx="8"/>
  <rect class="header2" x="367" y="120" width="185" height="35" rx="8"/>
  <circle cx="382" cy="160" r="6" fill="#4CAF50"/>
  <line class="text" x1="398" y1="160" x2="490" y2="160" stroke="#ddd" stroke-width="2"/>
  <circle cx="382" cy="195" r="6" fill="#4CAF50"/>
  <line class="text" x1="398" y1="195" x2="470" y2="195" stroke="#ddd" stroke-width="2"/>
  <circle cx="382" cy="230" r="6" fill="#4CAF50"/>
  <line class="text" x1="398" y1="230" x2="455" y2="230" stroke="#ddd" stroke-width="2"/>
  <circle class="dot-outline" cx="382" cy="265" r="5"/>
  <line class="text" x1="398" y1="265" x2="450" y2="265" stroke="#ddd" stroke-width="2"/>
  
  <!-- Right Card (Yellow Header) -->
  <rect class="card" x="552" y="163" width="135" height="190" rx="8"/>
  <rect class="header3" x="552" y="163" width="135" height="30" rx="8"/>
  <circle cx="568" cy="213" r="4" fill="#4CAF50"/>
  <line class="text" x1="582" y1="213" x2="630" y2="213" stroke="#ddd" stroke-width="2"/>
  <line class="text" x1="582" y1="233" x2="620" y2="233" stroke="#ddd" stroke-width="2"/>
  <line class="text" x1="582" y1="253" x2="635" y2="253" stroke="#ddd" stroke-width="2"/>
  <circle class="dot-outline" cx="568" cy="305" r="5"/>
  
  <!-- Large Check Circle -->
  <circle class="check-circle" cx="534" cy="360" r="35"/>
  <path class="check-icon" d="M520 360 L530 372 L550 350" stroke="white" stroke-width="4" fill="none" stroke-linecap="round" stroke-linejoin="round"/>
</svg>